<mxfile host="app.diagrams.net" agent="Mozilla/5.0 (Windows NT 10.0; Win64; x64) AppleWebKit/537.36 (KHTML, like Gecko) Chrome/131.0.0.0 Safari/537.36" version="25.0.3">
  <diagram name="Página-1" id="FzMVUBFn5M8jQVU29QVY">
    <mxGraphModel dx="819" dy="446" grid="1" gridSize="10" guides="1" tooltips="1" connect="1" arrows="1" fold="1" page="1" pageScale="1" pageWidth="850" pageHeight="1100" math="0" shadow="0">
      <root>
        <mxCell id="0" />
        <mxCell id="1" parent="0" />
        <mxCell id="y9TaPAOU8-0r_yK7LVzh-2" value="Usuario" style="shape=umlActor;verticalLabelPosition=bottom;verticalAlign=top;html=1;outlineConnect=0;" vertex="1" parent="1">
          <mxGeometry x="100" y="370" width="30" height="60" as="geometry" />
        </mxCell>
        <mxCell id="y9TaPAOU8-0r_yK7LVzh-3" value="Ingresar sus datos" style="ellipse;whiteSpace=wrap;html=1;" vertex="1" parent="1">
          <mxGeometry x="270" y="240" width="140" height="70" as="geometry" />
        </mxCell>
        <mxCell id="y9TaPAOU8-0r_yK7LVzh-4" value="" style="endArrow=classic;html=1;rounded=0;entryX=0;entryY=0.5;entryDx=0;entryDy=0;" edge="1" parent="1" target="y9TaPAOU8-0r_yK7LVzh-3">
          <mxGeometry width="50" height="50" relative="1" as="geometry">
            <mxPoint x="120" y="370" as="sourcePoint" />
            <mxPoint x="170" y="320" as="targetPoint" />
          </mxGeometry>
        </mxCell>
        <mxCell id="y9TaPAOU8-0r_yK7LVzh-5" value="Sistema" style="shape=umlActor;verticalLabelPosition=bottom;verticalAlign=top;html=1;outlineConnect=0;" vertex="1" parent="1">
          <mxGeometry x="550" y="370" width="30" height="60" as="geometry" />
        </mxCell>
        <mxCell id="y9TaPAOU8-0r_yK7LVzh-6" value="" style="endArrow=classic;html=1;rounded=0;exitX=1;exitY=0.5;exitDx=0;exitDy=0;" edge="1" parent="1" source="y9TaPAOU8-0r_yK7LVzh-3">
          <mxGeometry width="50" height="50" relative="1" as="geometry">
            <mxPoint x="320" y="420" as="sourcePoint" />
            <mxPoint x="560" y="370" as="targetPoint" />
          </mxGeometry>
        </mxCell>
        <mxCell id="y9TaPAOU8-0r_yK7LVzh-10" value="" style="endArrow=classic;html=1;rounded=0;entryX=1;entryY=0.5;entryDx=0;entryDy=0;" edge="1" parent="1" target="y9TaPAOU8-0r_yK7LVzh-11">
          <mxGeometry width="50" height="50" relative="1" as="geometry">
            <mxPoint x="540" y="395" as="sourcePoint" />
            <mxPoint x="510" y="465" as="targetPoint" />
          </mxGeometry>
        </mxCell>
        <mxCell id="y9TaPAOU8-0r_yK7LVzh-11" value="Valida datos" style="ellipse;whiteSpace=wrap;html=1;" vertex="1" parent="1">
          <mxGeometry x="270" y="360" width="140" height="70" as="geometry" />
        </mxCell>
        <mxCell id="y9TaPAOU8-0r_yK7LVzh-12" value="Concede permisos" style="ellipse;whiteSpace=wrap;html=1;" vertex="1" parent="1">
          <mxGeometry x="270" y="480" width="140" height="70" as="geometry" />
        </mxCell>
        <mxCell id="y9TaPAOU8-0r_yK7LVzh-14" value="" style="endArrow=classic;html=1;rounded=0;entryX=1;entryY=0.5;entryDx=0;entryDy=0;" edge="1" parent="1" target="y9TaPAOU8-0r_yK7LVzh-12">
          <mxGeometry width="50" height="50" relative="1" as="geometry">
            <mxPoint x="540" y="429.43" as="sourcePoint" />
            <mxPoint x="410" y="429.43" as="targetPoint" />
          </mxGeometry>
        </mxCell>
        <mxCell id="y9TaPAOU8-0r_yK7LVzh-15" value="" style="endArrow=classic;html=1;rounded=0;" edge="1" parent="1" target="y9TaPAOU8-0r_yK7LVzh-2">
          <mxGeometry width="50" height="50" relative="1" as="geometry">
            <mxPoint x="270" y="514.71" as="sourcePoint" />
            <mxPoint x="140" y="514.71" as="targetPoint" />
          </mxGeometry>
        </mxCell>
        <mxCell id="y9TaPAOU8-0r_yK7LVzh-16" value="" style="endArrow=classic;html=1;rounded=0;entryX=0;entryY=0.5;entryDx=0;entryDy=0;" edge="1" parent="1" target="y9TaPAOU8-0r_yK7LVzh-18">
          <mxGeometry width="50" height="50" relative="1" as="geometry">
            <mxPoint x="120" y="450" as="sourcePoint" />
            <mxPoint x="280" y="610" as="targetPoint" />
          </mxGeometry>
        </mxCell>
        <mxCell id="y9TaPAOU8-0r_yK7LVzh-18" value="Envía información de parámetro a cambiar" style="ellipse;whiteSpace=wrap;html=1;" vertex="1" parent="1">
          <mxGeometry x="270" y="600" width="140" height="70" as="geometry" />
        </mxCell>
        <mxCell id="y9TaPAOU8-0r_yK7LVzh-19" value="" style="endArrow=classic;html=1;rounded=0;exitX=1.009;exitY=0.412;exitDx=0;exitDy=0;exitPerimeter=0;" edge="1" parent="1" source="y9TaPAOU8-0r_yK7LVzh-18">
          <mxGeometry width="50" height="50" relative="1" as="geometry">
            <mxPoint x="560" y="450" as="sourcePoint" />
            <mxPoint x="550" y="450" as="targetPoint" />
          </mxGeometry>
        </mxCell>
        <mxCell id="y9TaPAOU8-0r_yK7LVzh-20" value="" style="endArrow=classic;html=1;rounded=0;entryX=1;entryY=0.5;entryDx=0;entryDy=0;" edge="1" parent="1" target="y9TaPAOU8-0r_yK7LVzh-21">
          <mxGeometry width="50" height="50" relative="1" as="geometry">
            <mxPoint x="560" y="450" as="sourcePoint" />
            <mxPoint x="530" y="710" as="targetPoint" />
            <Array as="points">
              <mxPoint x="560" y="755" />
            </Array>
          </mxGeometry>
        </mxCell>
        <mxCell id="y9TaPAOU8-0r_yK7LVzh-21" value="Cambia parametro y entrega resultados" style="ellipse;whiteSpace=wrap;html=1;" vertex="1" parent="1">
          <mxGeometry x="260" y="720" width="140" height="70" as="geometry" />
        </mxCell>
        <mxCell id="y9TaPAOU8-0r_yK7LVzh-23" value="" style="endArrow=classic;html=1;rounded=0;exitX=0;exitY=0.5;exitDx=0;exitDy=0;" edge="1" parent="1" source="y9TaPAOU8-0r_yK7LVzh-21">
          <mxGeometry width="50" height="50" relative="1" as="geometry">
            <mxPoint x="70" y="570" as="sourcePoint" />
            <mxPoint x="120" y="460" as="targetPoint" />
            <Array as="points">
              <mxPoint x="120" y="755" />
            </Array>
          </mxGeometry>
        </mxCell>
      </root>
    </mxGraphModel>
  </diagram>
</mxfile>
